<?xml version="1.0" standalone="no"?>
<!DOCTYPE svg PUBLIC "-//W3C//DTD SVG 20010904//EN"
 "http://www.w3.org/TR/2001/REC-SVG-20010904/DTD/svg10.dtd">
<svg version="1.0" xmlns="http://www.w3.org/2000/svg"
 width="1133.000000pt" height="1280.000000pt" viewBox="0 0 1133.000000 1280.000000"
 preserveAspectRatio="xMidYMid meet">
<metadata>
Created by potrace 1.15, written by Peter Selinger 2001-2017
</metadata>
<g transform="translate(0.000000,1280.000000) scale(0.100000,-0.100000)"
fill="#000000" stroke="none">
<path d="M1737 12789 c-104 -25 -213 -112 -260 -209 -43 -90 -49 -162 -45
-622 3 -406 4 -425 25 -481 41 -110 131 -200 243 -244 41 -16 99 -18 673 -21
l627 -3 0 -684 0 -684 -967 -3 -968 -3 -67 -26 c-93 -36 -157 -80 -227 -154
-71 -77 -116 -164 -136 -265 -8 -41 -33 -289 -55 -550 -22 -261 -67 -785 -100
-1165 -32 -379 -84 -980 -115 -1335 -30 -355 -80 -933 -111 -1285 -30 -352
-82 -950 -114 -1330 -33 -379 -60 -691 -60 -692 0 -2 2514 -3 5586 -3 l5586 0
-6 58 c-4 31 -27 296 -52 587 -43 514 -77 904 -204 2370 -155 1804 -183 2129
-230 2680 -28 325 -57 624 -65 665 -20 101 -65 188 -136 265 -70 74 -134 118
-227 154 l-67 26 -3047 3 -3048 2 0 685 0 685 603 0 c361 0 619 4 645 10 116
27 221 111 274 218 l33 67 0 500 0 500 -33 67 c-41 84 -128 167 -209 200 l-58
23 -1825 2 c-1040 0 -1841 -3 -1863 -8z m7978 -3742 c250 -73 418 -243 446
-452 6 -51 9 -269 7 -605 -4 -508 -5 -527 -25 -582 -50 -132 -150 -240 -287
-308 -165 -81 -28 -75 -1781 -75 l-1560 0 -79 23 c-207 60 -353 179 -418 340
-23 57 -23 58 -26 627 -4 620 -2 637 51 739 61 115 159 199 301 259 136 57 79
56 1761 54 1444 -2 1554 -3 1610 -20z m-4587 -594 l2 -503 -1877 0 -1878 0 2
502 c2 277 3 504 3 506 0 1 843 1 1873 0 l1872 -3 3 -502z m-3018 -2841 c47
-23 80 -75 80 -125 0 -22 -12 -128 -26 -236 -29 -225 -45 -268 -113 -316 l-43
-30 -256 -3 c-275 -3 -290 -1 -337 48 -41 42 -41 89 -5 315 34 214 46 254 88
299 57 61 83 66 342 66 204 0 240 -2 270 -18z m830 -1 c19 -10 45 -33 58 -51
28 -41 28 -90 3 -336 -22 -207 -36 -247 -103 -291 l-41 -28 -258 -3 c-277 -3
-291 -1 -339 50 -40 43 -41 76 -10 314 16 123 36 236 44 251 8 15 27 40 43 55
56 53 78 57 333 58 210 0 239 -2 270 -19z m835 -4 c27 -15 47 -37 63 -68 l23
-47 -16 -223 c-19 -256 -29 -292 -98 -337 l-40 -27 -255 -3 c-240 -3 -256 -2
-297 18 -30 15 -49 33 -66 64 l-23 44 23 227 c12 125 26 237 31 249 14 39 63
88 105 107 35 16 68 19 275 19 225 0 237 -1 275 -23z m1502 2 c29 -14 52 -35
69 -65 l26 -44 -4 -232 c-3 -265 -9 -289 -81 -336 l-41 -27 -267 0 c-256 0
-269 1 -296 21 -15 11 -39 36 -52 55 l-23 34 6 225 c4 124 12 242 18 262 13
43 60 95 103 114 22 10 93 13 264 14 218 0 238 -1 278 -21z m850 -11 c72 -47
78 -71 81 -333 3 -226 3 -231 -20 -274 -17 -31 -38 -52 -68 -68 -42 -22 -52
-23 -288 -23 -278 0 -304 6 -352 77 -25 37 -25 37 -25 277 l0 241 27 46 c19
32 41 54 70 68 41 21 55 21 289 19 l246 -3 40 -27z m811 11 c26 -13 54 -38 70
-61 23 -35 27 -54 33 -161 5 -67 9 -179 11 -248 2 -120 1 -129 -22 -163 -48
-70 -74 -76 -350 -76 -227 0 -247 1 -287 21 -30 14 -52 35 -70 66 -26 45 -26
48 -31 277 -4 229 -4 231 20 275 16 31 38 52 68 68 41 22 52 23 278 23 220 0
239 -1 280 -21z m1490 5 c48 -19 99 -69 112 -108 10 -32 50 -393 50 -456 0
-50 -31 -101 -76 -127 -37 -22 -49 -23 -287 -23 -278 0 -290 2 -348 67 -44 48
-44 51 -64 323 l-15 204 22 46 c16 30 36 52 63 67 38 22 51 23 273 23 188 0
240 -3 270 -16z m837 -3 c51 -23 101 -80 114 -128 5 -21 22 -131 36 -245 l27
-208 -21 -43 c-14 -29 -34 -51 -61 -66 -38 -21 -46 -22 -298 -19 l-259 3 -40
28 c-69 48 -81 81 -103 298 -26 252 -26 288 3 329 44 66 64 70 327 70 206 0
240 -3 275 -19z m823 4 c48 -20 109 -80 122 -119 14 -45 70 -409 70 -457 0
-52 -24 -92 -70 -118 -35 -20 -53 -21 -276 -21 -138 0 -255 5 -277 11 -50 13
-113 77 -126 126 -19 74 -63 442 -57 476 8 44 36 80 78 100 48 24 480 25 536
2z m-8078 -817 c82 -57 84 -73 45 -371 -31 -229 -45 -263 -134 -309 l-53 -28
-247 0 c-277 0 -311 7 -351 72 -26 43 -25 65 11 291 36 227 42 248 82 294 60
68 81 73 363 73 244 0 252 -1 284 -22z m850 3 c51 -27 80 -74 80 -132 0 -94
-41 -434 -57 -467 -20 -41 -78 -89 -123 -102 -57 -16 -504 -13 -543 4 -39 16
-84 67 -94 104 -9 38 45 449 67 498 18 41 64 84 110 103 14 5 136 10 275 10
225 1 254 -1 285 -18z m843 5 c42 -17 85 -68 92 -110 10 -50 -23 -464 -40
-495 -19 -38 -64 -78 -107 -95 -30 -13 -83 -16 -280 -16 -215 0 -248 3 -284
19 -48 22 -81 61 -90 106 -7 37 33 446 47 484 15 38 58 81 104 102 35 16 68
19 283 19 183 0 251 -3 275 -14z m1550 0 c44 -18 95 -78 103 -120 3 -20 2
-136 -2 -259 l-9 -224 -29 -37 c-55 -72 -81 -77 -374 -74 -257 3 -259 3 -295
28 -21 14 -47 45 -58 68 -21 43 -21 48 -11 273 12 239 16 262 64 306 54 51 66
53 331 53 185 0 256 -3 280 -14z m867 -8 c52 -27 78 -60 90 -114 13 -55 12
-446 -1 -481 -15 -40 -48 -73 -94 -94 -35 -16 -68 -19 -285 -19 -266 0 -296 6
-347 61 -38 42 -43 73 -43 282 1 275 14 322 102 366 40 20 59 21 288 21 235 0
248 -1 290 -22z m837 11 c35 -13 80 -55 100 -93 11 -22 18 -89 26 -262 l10
-232 -26 -45 c-19 -31 -40 -52 -71 -67 -42 -20 -56 -21 -304 -18 l-260 3 -43
30 c-74 52 -77 67 -81 341 l-3 242 31 38 c56 72 68 74 346 74 150 0 258 -4
275 -11z m1550 0 c34 -12 89 -64 108 -100 8 -15 24 -126 37 -257 25 -263 24
-274 -48 -329 l-37 -28 -251 -3 c-164 -2 -264 1 -289 8 -46 14 -106 65 -123
106 -15 37 -48 444 -39 491 7 40 49 91 90 109 38 17 509 20 552 3z m1711 -4
c51 -22 111 -82 122 -125 15 -57 70 -407 70 -448 0 -52 -32 -99 -83 -122 -40
-19 -73 -20 -718 -20 -479 0 -686 3 -710 11 -19 7 -49 23 -67 36 -57 43 -68
80 -92 308 -24 227 -23 269 9 313 45 64 18 62 759 62 585 0 677 -2 710 -15z
m-8321 -808 c37 -20 68 -61 77 -102 3 -16 -7 -131 -24 -255 -34 -258 -44 -283
-135 -329 -49 -26 -50 -26 -315 -26 -249 0 -267 1 -300 21 -43 25 -80 78 -80
113 0 55 69 450 83 477 17 33 61 76 97 95 45 23 101 28 335 25 195 -1 235 -4
262 -19z m822 13 c65 -12 103 -39 126 -87 18 -36 17 -45 -4 -262 -12 -124 -28
-239 -35 -255 -7 -17 -31 -47 -53 -68 -60 -53 -109 -60 -386 -56 -222 3 -234
4 -273 26 -53 31 -74 68 -74 129 0 72 48 431 61 456 17 34 71 88 99 99 14 6
43 14 65 18 61 11 416 11 474 0z m940 -20 c85 -49 90 -77 67 -386 -15 -188
-23 -220 -68 -260 -62 -57 -72 -59 -358 -59 -249 0 -267 1 -305 21 -25 13 -49
36 -64 64 l-24 43 22 226 c25 253 36 291 100 335 56 39 103 45 356 43 225 -2
231 -3 274 -27z m1534 21 c55 -9 92 -33 125 -82 23 -33 23 -37 20 -280 l-3
-247 -31 -39 c-60 -75 -75 -78 -374 -78 -263 0 -265 0 -308 25 -64 37 -86 78
-85 164 3 206 16 394 29 426 26 62 74 98 149 111 56 9 420 9 478 0z m930 -15
c42 -17 83 -66 97 -114 5 -20 10 -133 10 -250 0 -237 -5 -262 -62 -305 -54
-42 -115 -49 -370 -45 -218 3 -236 4 -275 25 -23 13 -52 37 -65 55 -22 32 -23
42 -26 233 -2 110 -1 223 3 252 8 64 38 111 90 140 39 22 49 23 303 23 199 0
270 -3 295 -14z m880 -2 c94 -48 103 -74 115 -337 13 -272 6 -303 -81 -349
-39 -22 -56 -23 -274 -26 -278 -4 -326 3 -382 56 -23 22 -43 53 -50 77 -17 62
-15 469 3 503 18 34 54 68 86 81 14 5 138 10 288 10 224 1 268 -1 295 -15z
m1608 -7 c28 -15 54 -40 71 -68 26 -41 29 -61 49 -274 22 -224 22 -231 4 -268
-10 -22 -36 -51 -58 -65 l-41 -27 -270 0 c-293 0 -302 1 -364 59 -47 42 -53
68 -69 308 l-17 230 23 42 c12 25 38 52 59 64 35 21 49 22 303 22 259 0 267
-1 310 -23z m1748 4 c47 -24 96 -79 109 -123 13 -41 72 -406 72 -446 0 -38
-36 -91 -80 -116 -34 -21 -50 -21 -719 -24 -479 -2 -701 1 -739 9 -61 12 -126
63 -147 114 -7 17 -23 132 -35 256 l-23 226 24 43 c47 85 1 80 797 80 676 0
704 -1 741 -19z"/>
<path d="M0 1387 c0 -1062 -2 -1031 58 -1141 60 -111 187 -203 319 -231 102
-22 10474 -22 10576 0 132 28 259 120 319 231 60 110 58 79 58 1141 l0 973
-5665 0 -5665 0 0 -973z m5779 -72 c338 -80 493 -475 299 -765 -196 -294 -631
-293 -827 1 -78 117 -104 283 -66 416 73 254 336 408 594 348z"/>
</g>
</svg>
